<svg xmlns="http://www.w3.org/2000/svg" viewBox="0 0 1600 900" width="1600" height="900">
  <defs>
    <linearGradient id="bg" x1="0" y1="0" x2="1" y2="1">
      <stop offset="0" stop-color="#101820"/>
      <stop offset="0.52" stop-color="#1e2630"/>
      <stop offset="1" stop-color="#3b2521"/>
    </linearGradient>
    <radialGradient id="spot" cx="47%" cy="36%" r="58%">
      <stop offset="0" stop-color="#fff1b8" stop-opacity=".18"/>
      <stop offset=".46" stop-color="#ffcc66" stop-opacity=".08"/>
      <stop offset="1" stop-color="#000000" stop-opacity="0"/>
    </radialGradient>
    <filter id="softShadow" x="-30%" y="-30%" width="160%" height="160%">
      <feDropShadow dx="0" dy="12" stdDeviation="18" flood-color="#000" flood-opacity=".45"/>
    </filter>
  </defs>
  <rect width="1600" height="900" fill="url(#bg)"/>
  <rect width="1600" height="900" fill="url(#spot)"/>
  <g opacity=".2">
    <rect x="0" y="66" width="1600" height="34" fill="#000"/>
    <rect x="0" y="800" width="1600" height="34" fill="#000"/>
    <g fill="#f7ecd0">
      <rect x="48" y="70" width="25" height="25"/><rect x="108" y="70" width="25" height="25"/><rect x="168" y="70" width="25" height="25"/><rect x="228" y="70" width="25" height="25"/>
      <rect x="48" y="804" width="25" height="25"/><rect x="108" y="804" width="25" height="25"/><rect x="168" y="804" width="25" height="25"/><rect x="228" y="804" width="25" height="25"/>
      <rect x="1350" y="70" width="25" height="25"/><rect x="1410" y="70" width="25" height="25"/><rect x="1470" y="70" width="25" height="25"/>
      <rect x="1350" y="804" width="25" height="25"/><rect x="1410" y="804" width="25" height="25"/><rect x="1470" y="804" width="25" height="25"/>
    </g>
  </g>
  <text x="120" y="146" font-family="Avenir Next, Montserrat, Arial, sans-serif" font-size="26" letter-spacing="5" fill="#f6d776">THE BREAK-UP SCENE</text>
  <g filter="url(#softShadow)">
    <text x="118" y="384" font-family="Georgia, 'Times New Roman', serif" font-size="102" fill="#fff7df">Rhythm Reading</text>
    <text x="122" y="496" font-family="Georgia, 'Times New Roman', serif" font-size="102" fill="#fff7df">Practice</text>
  </g>
  <rect x="122" y="548" width="436" height="7" rx="3.5" fill="#8fdc7d"/>
  <text x="122" y="620" font-family="Avenir Next, Montserrat, Arial, sans-serif" font-size="34" fill="#e7eced">Function Words, Content Words, and Stress</text>
  <g transform="translate(1180 560)">
    <ellipse cx="118" cy="74" rx="84" ry="46" fill="#ffc857"/>
    <path d="M55 58h126M48 76h140M60 94h116" stroke="#55361d" stroke-width="16" stroke-linecap="round" opacity=".72"/>
    <circle cx="78" cy="45" r="12" fill="#1d2127"/><circle cx="158" cy="45" r="12" fill="#1d2127"/>
    <path d="M92 121q28 22 57 0" fill="none" stroke="#1d2127" stroke-width="8" stroke-linecap="round"/>
    <ellipse cx="36" cy="26" rx="34" ry="22" fill="#d9f7ff" opacity=".58" transform="rotate(-22 36 26)"/>
    <ellipse cx="198" cy="26" rx="34" ry="22" fill="#d9f7ff" opacity=".58" transform="rotate(22 198 26)"/>
    <path d="M70 8C52-24 20-22 15 4" stroke="#1d2127" stroke-width="6" fill="none" stroke-linecap="round"/>
    <path d="M164 8c18-32 50-30 55-4" stroke="#1d2127" stroke-width="6" fill="none" stroke-linecap="round"/>
  </g>
  <text x="122" y="776" font-family="Avenir Next, Montserrat, Arial, sans-serif" font-size="25" fill="#aeb9bb">Cinematic Cute Classroom / Canva 16:9 Rough</text>
</svg>
