<svg xmlns="http://www.w3.org/2000/svg" viewBox="0 0 1920 1080" width="1920" height="1080">
  <defs>
    <linearGradient id="leftWash" x1="0" y1="0" x2="1" y2="0"><stop offset="0" stop-color="#050505" stop-opacity=".86"/><stop offset=".48" stop-color="#050505" stop-opacity=".64"/><stop offset=".73" stop-color="#050505" stop-opacity=".18"/><stop offset="1" stop-color="#050505" stop-opacity="0"/></linearGradient>
    <filter id="hardShadow"><feDropShadow dx="0" dy="10" stdDeviation="5" flood-color="#000" flood-opacity=".86"/></filter>
    <filter id="glow"><feDropShadow dx="0" dy="0" stdDeviation="12" flood-color="#ffe21f" flood-opacity=".5"/><feDropShadow dx="0" dy="10" stdDeviation="8" flood-color="#000" flood-opacity=".65"/></filter>
    <style>.jp{font-family:Hiragino Sans,Yu Gothic,Meiryo,Avenir Next,Arial,sans-serif}.sans{font-family:Avenir Next,Montserrat,Arial,sans-serif}</style>
  </defs>
  <image href="bg-answer-weak-stress.png" width="1920" height="1080" preserveAspectRatio="xMidYMid slice"/>
  <rect width="1920" height="1080" fill="url(#leftWash)"/>
  <g transform="translate(86 68)"><rect width="318" height="70" rx="35" fill="#101010" opacity=".94"/><rect x="8" y="8" width="302" height="54" rx="27" fill="none" stroke="#ffe21f" stroke-width="3"/><text x="32" y="47" class="sans" font-size="27" font-weight="1000" fill="#ffe21f" letter-spacing="2">LESSON 01</text></g>
  <g filter="url(#hardShadow)">
    <text x="92" y="232" class="sans" font-size="38" font-weight="1000" fill="#ffe21f" letter-spacing="4">ANSWER</text>
    <text x="90" y="374" class="jp" font-size="74" font-weight="1000" fill="#fff">強勢を</text>
    <text x="90" y="486" class="jp" font-size="98" font-weight="1000" fill="#ffe21f">受けにくい語</text>
  </g>
  <g transform="translate(96 626)" filter="url(#glow)">
    <rect width="750" height="132" rx="32" fill="#111" opacity=".94"/>
    <text x="42" y="82" class="jp" font-size="40" font-weight="1000" fill="#fff">機能語になる品詞は？</text>
  </g>
  <g transform="translate(1075 770)" opacity=".92" filter="url(#hardShadow)">
    <path d="M0 42c90-56 184-56 276 0 88 54 182 54 278 0" fill="none" stroke="#ffe21f" stroke-width="16" stroke-linecap="round"/>
    <path d="M0 96c90-38 184-38 276 0 88 36 182 36 278 0" fill="none" stroke="#ffffff" stroke-width="9" stroke-linecap="round" opacity=".72"/>
  </g>
</svg>
